<?xml version="1.0" encoding="UTF-8" standalone="no"?>
<svg
        viewBox="0 0 979 979"
        preserveAspectRatio="xMidYMid meet"
        version="1.1"
        id="svg1"
        xml:space="preserve"
        xmlns="http://www.w3.org/2000/svg"
>
    <defs id="defs1">
        <style id="style1">.cls-1{fill:#046;}.cls-2{fill:#0a9e7b;}.cls-3{fill:#253744;opacity:0.6;isolation:isolate;}.cls-4{fill:#fff;}.cls-5{fill:#1976d2;}.cls-6{fill:#e4e7ed;}.cls-7{fill:#cad2db;}.cls-8{fill:#176aaf;}.cls-9{fill:#dadde5;}</style>
    </defs>

    <g id="g1">
        <circle class="cls-1" cx="489.5" cy="489.5" r="489.5" id="circle1"/>
        <path class="cls-2" d="M 1029.5,540.5 A 487.18,487.18 0 0 0 950.79,274.19 c 0,0 -27.92,40.79 -22.68,67 5.24,26.21 36.05,28.23 32.89,47.46 -3.16,19.23 -25.89,-5.5 -53.87,45.19 -27.98,50.69 -14,120.65 26.22,125.88 40.22,5.23 96.15,-19.22 96.15,-19.22 z" transform="translate(-50.5,-51)" id="path1"/>
        <path class="cls-2" d="m 668.55,68.06 a 487.39,487.39 0 0 1 156.52,74.48 c 0,0 -56.76,-9.36 -78.26,9.86 -21.5,19.22 -52.86,64.69 -78.26,0 -25.4,-64.69 0,-84.34 0,-84.34 z" transform="translate(-50.5,-51)" id="path2"/>
        <path class="cls-2" d="M 173,217.77 C 262.67,115.54 394.29,51 541,51 c 0,0 -33.21,20.11 29.73,54.2 62.94,34.09 34.09,49.82 21,60.31 -13.09,10.49 -35.85,-21 -50.7,-42 -14.85,-21 -78.68,-53.27 -127.63,-35.79 -48.95,17.48 -90.9,30.4 -83.91,46.67 6.99,16.27 90.9,-15.19 122.37,-13.45 31.47,1.74 21,21 -8.74,43.7 -29.74,22.7 -33.22,50.7 -1.75,68.18 31.47,17.48 69.92,19.24 78.67,8.75 8.75,-10.49 -15.73,-78.67 43.71,-49 59.44,29.67 108.39,47.21 59.44,90.91 -48.95,43.7 -104.9,92.71 -106.65,120.67 -1.75,27.96 17.49,50.71 7,52.45 -10.49,1.74 -20.12,-11.36 -27.11,-21 -6.99,-9.64 -39.33,-13.11 -55.07,-7 -15.74,6.11 -45.46,29.72 -28.85,52.45 16.61,22.73 39.32,12.23 62.06,22.72 22.74,10.49 43.92,50.41 39.57,59.44 -4.35,9.03 -23.73,-2.4 -39.57,-33.21 -15.84,-30.81 -45.57,-10.47 -66.49,-15.72 -20.92,-5.25 -36.65,-8.74 -57.63,-45.45 -20.98,-36.71 -64.41,-47 -82.16,-68.18 C 217.45,339.94 221.09,294 210.6,273 200.11,252 173,217.77 173,217.77 Z" transform="translate(-50.5,-51)" id="path3"/>
        <path class="cls-2" d="m 587.2,547.49 c 0,0 52.45,5.24 78.67,28 26.22,22.76 29.73,31.48 69.93,40.21 40.2,8.73 57.69,31.46 31.47,75.17 -26.22,43.71 -73.43,113.64 -96.15,134.62 -22.72,20.98 -50.69,38.46 -61.18,73.42 -10.49,34.96 -14,55.93 8.74,69.92 0,0 -12.23,29.72 -40.2,-8.74 -27.97,-38.46 -5.25,-83.91 0,-110.14 5.25,-26.23 19.21,-104.95 10.52,-124.14 -8.69,-19.19 -49,-31.48 -59.44,-71.68 -10.44,-40.2 7.82,-118.44 57.64,-106.64 z" transform="translate(-50.5,-51)" id="path4"/>
        <path class="cls-3" d="M 193.87,194.38 C 385,3.21 695,3.21 886.13,194.38 c 191.13,191.17 191.17,501.09 0,692.25 0,0 222.09,-293.68 -92.34,-608.11 C 479.36,-35.91 193.87,194.38 193.87,194.38 Z" transform="translate(-50.5,-51)" id="path5"/>
        <polygon class="cls-4" points="333.1,304.22 334.2,305.55 335.3,306.89 336.4,308.23 337.52,309.58 338.63,310.94 339.76,312.3 340.89,313.66 342.02,315.03 349.42,308.21 348.3,306.85 347.17,305.49 346.06,304.14 344.94,302.79 343.83,301.44 342.73,300.11 341.63,298.78 340.53,297.45 339.45,296.13 338.37,294.81 337.29,293.49 336.21,292.18 335.15,290.88 334.08,289.57 333.02,288.27 331.96,286.97 330.91,285.68 329.87,284.4 328.82,283.12 327.77,281.84 326.74,280.57 325.71,279.3 324.69,278.03 323.66,276.78 322.65,275.52 321.63,274.27 320.62,273.02 319.62,271.79 318.6,270.55 317.6,269.32 317.54,269.25 310.08,275.99 310.06,275.98 310.12,276.06 311.13,277.29 312.12,278.51 313.14,279.76 314.15,281 315.17,282.25 316.19,283.5 317.22,284.76 318.24,286.02 319.27,287.3 320.3,288.57 321.35,289.84 322.39,291.12 323.44,292.41 324.5,293.7 325.56,294.99 326.62,296.3 327.69,297.61 328.76,298.92 329.84,300.24 330.93,301.56 332.01,302.89 " id="polygon5"/>
        <path class="cls-4" d="m 197.5,192 -4,4 c 16,1 15.6,1.93 30.87,6.42 L 228.5,193 c -16.29,-4.9 -21,-6 -26,-6 l -6,6" transform="translate(-50.5,-51)" id="path6"/>
        <path class="cls-4" d="m 250.37,213.74 v 0 c 13.69,7.82 26.65,19 38.08,30.09 l 6.69,-7.59 c -11.78,-11.55 -25.78,-23.42 -40,-31.53 z" transform="translate(-50.5,-51)" id="path7"/>
        <polygon class="cls-4" points="263.58,220.11 264.42,221.07 265.26,222.04 266.11,223.01 266.96,223.99 267.81,224.97 268.66,225.96 269.52,226.95 270.37,227.96 271.23,228.96 272.09,229.97 272.97,231 273.84,232.02 274.7,233.04 275.58,234.07 276.45,235.11 277.33,236.16 278.21,237.22 279.1,238.27 279.98,239.34 280.87,240.4 281.76,241.48 282.66,242.55 283.56,243.64 284.46,244.73 285.37,245.82 286.27,246.92 287.18,248.03 288.1,249.13 289.01,250.25 289.93,251.37 290.85,252.5 290.91,252.57 298.34,245.78 298.28,245.71 297.35,244.58 296.43,243.45 295.51,242.34 294.59,241.22 293.68,240.11 292.76,239 291.86,237.91 290.95,236.81 290.04,235.72 289.14,234.64 288.25,233.55 287.35,232.47 286.46,231.41 285.56,230.34 284.67,229.29 283.78,228.23 282.89,227.18 282.01,226.14 281.14,225.11 280.25,224.07 279.38,223.05 278.51,222.03 277.63,221.01 276.77,220 275.91,219 275.04,218 274.18,216.99 273.32,216 272.46,215.02 271.61,214.03 270.75,213.06 269.89,212.09 269.04,211.13 268.2,210.18 267.36,209.22 266.51,208.26 265.67,207.32 265.6,207.25 258.46,214.38 258.5,214.38 258.56,214.46 259.4,215.39 260.23,216.32 261.06,217.26 261.9,218.21 262.74,219.16 " id="polygon7"/>
        <path class="cls-5" d="m 516.17,436.3 -68.37,57.54 c -3.74,3.13 -54,5 -57.09,1.24 l -11.39,-13.6 a 8.9,8.9 0 0 1 1.11,-12.5 l 7.14,-6 54.43,-45.52 c 22.1,-18.51 44.23,-37.33 55.08,-46.13 l 6.8,-5.69 a 8.9,8.9 0 0 1 12.5,1.11 l 11.39,13.6 c 3.1,3.73 -7.86,52.82 -11.6,55.95 z" transform="translate(-50.5,-51)" id="path8"/>
        <path class="cls-6" d="m 520.45,441.34 -68.37,57.54 c -3.74,3.13 -54,5 -57.09,1.24 L 383.6,486.52 A 8.9,8.9 0 0 1 384.7,474 l 7.14,-6 54.4,-45.56 c 22.1,-18.51 44.23,-37.33 55.08,-46.13 l 6.8,-5.69 a 8.9,8.9 0 0 1 12.5,1.11 L 532,385.38 c 3.15,3.74 -7.81,52.83 -11.55,55.96 z" transform="translate(-50.5,-51)" id="path9"/>
        <path class="cls-7" d="m 515.14,663 -22.54,18.85 36.13,43.22 a 12.41,12.41 0 0 0 7,4.3 8.21,8.21 0 0 0 6.89,-1.57 l 8.88,-7.43 a 8.23,8.23 0 0 0 2.78,-6.51 12.59,12.59 0 0 0 -3,-7.63 z" transform="translate(-50.5,-51)" id="path10"/>
        <path class="cls-8" d="m 528.71,725.09 -2.36,-2.83 22.56,-18.86 2.36,2.83 a 12.9,12.9 0 0 1 2.63,5.16 l -20.58,17.2 a 12.64,12.64 0 0 1 -4.61,-3.5 z" transform="translate(-50.5,-51)" id="path11"/>
        <path class="cls-7" d="m 442.64,679.43 -22.55,18.85 36.11,43.19 a 12.36,12.36 0 0 0 7,4.29 8.11,8.11 0 0 0 6.94,-1.55 l 8.87,-7.41 a 8.11,8.11 0 0 0 2.74,-6.55 12.25,12.25 0 0 0 -3,-7.64 l -36.11,-43.19 z" transform="translate(-50.5,-51)" id="path12"/>
        <path class="cls-8" d="m 456.19,741.48 -2.34,-2.8 22.56,-18.86 2.34,2.8 a 12.7,12.7 0 0 1 2.66,5.19 L 460.84,745 a 12.55,12.55 0 0 1 -4.65,-3.52 z" transform="translate(-50.5,-51)" id="path13"/>
        <path class="cls-7" d="m 673.52,530.69 22.56,-18.86 36.13,43.22 a 12.45,12.45 0 0 1 3,7.63 8.19,8.19 0 0 1 -2.77,6.5 l -8.88,7.43 a 8.21,8.21 0 0 1 -6.89,1.57 12.46,12.46 0 0 1 -7,-4.28 l -36.13,-43.22 z" transform="translate(-50.5,-51)" id="path14"/>
        <path class="cls-8" d="m 732.21,555.05 -2.36,-2.83 -22.56,18.86 2.36,2.83 a 12.53,12.53 0 0 0 4.62,3.5 l 20.58,-17.21 a 12.83,12.83 0 0 0 -2.64,-5.15 z" transform="translate(-50.5,-51)" id="path15"/>
        <path class="cls-7" d="m 702.84,462 22.55,-18.85 36.11,43.19 a 12.32,12.32 0 0 1 3,7.65 8.12,8.12 0 0 1 -2.75,6.55 l -8.89,7.46 a 8.07,8.07 0 0 1 -6.91,1.53 12.26,12.26 0 0 1 -7,-4.3 z" transform="translate(-50.5,-51)" id="path16"/>
        <path class="cls-8" d="m 761.49,486.33 -2.34,-2.8 -22.55,18.85 2.34,2.8 a 12.77,12.77 0 0 0 4.64,3.54 l 20.56,-17.19 a 12.55,12.55 0 0 0 -2.65,-5.2 z" transform="translate(-50.5,-51)" id="path17"/>
        <path class="cls-6" d="m 667,617.71 -67.33,56.38 c -7.48,6.26 -203.75,57.52 -210,50 l -22.49,-26.86 a 17.41,17.41 0 0 1 2.18,-24.68 L 554.78,551.42 706,390.4 a 17.41,17.41 0 0 1 24.68,2.18 l 22.49,26.86 c 6.25,7.48 -78.72,192 -86.17,198.27 z" transform="translate(-50.5,-51)" id="path18"/>
        <path class="cls-5" d="M 519.2,574.4 369.44,672 a 17.88,17.88 0 0 0 -3.33,23.28 l 164,-107.81 z m 74.88,-40.49 134.24,-143.39 a 17.74,17.74 0 0 0 -22.58,-0.09 L 583.47,520.88 Z" transform="translate(-50.5,-51)" id="path19"/>
        <path class="cls-9" d="m 718.43,747.15 c -17.65,14.78 -56.77,-3.24 -74.53,-24.13 L 452,493.57 c -17.74,-21.18 -55.21,-94.63 -37.56,-109.41 17.65,-14.78 83.37,35 101.11,56.2 l 192.22,229.18 c 17.74,21.18 28.32,62.82 10.66,77.61 z" transform="translate(-50.5,-51)" id="path20"/>
        <path class="cls-7" d="M 500.16,453.55 692,682.7 c 15,18 24.94,50.64 17.07,69 a 25.79,25.79 0 0 0 9.61,-4.5 c 17.65,-14.78 6.78,-56.45 -11,-77.64 L 515.89,440.38 c -17.74,-21.18 -83.48,-70.68 -101.11,-56.2 -2.57,2.15 -4.09,5.88 -4.5,10.6 25.33,2.54 74.83,40.79 89.88,58.77 z" transform="translate(-50.5,-51)" id="path21"/>
    </g>
</svg>
